<?xml version="1.0" encoding="UTF-8"?> <svg xmlns="http://www.w3.org/2000/svg" width="600" height="124" viewBox="0 0 600 124" fill="none"> <g filter="url(#filter0_i_192_38)"> <rect y="28" width="600" height="96" rx="8" fill="url(#paint0_linear_192_38)"></rect> </g> <g filter="url(#filter1_i_192_38)"> <rect width="600" height="120" rx="8" fill="url(#paint1_linear_192_38)"></rect> </g> <path d="M192.216 57.8C192.216 54.5573 193.336 51.816 195.576 49.576C197.816 47.3147 200.557 46.184 203.8 46.184C207.043 46.184 209.784 47.3147 212.024 49.576C214.285 51.816 215.416 54.5573 215.416 57.8C215.416 61.0213 214.285 63.7627 212.024 66.024C209.784 68.2853 207.043 69.416 203.8 69.416C200.557 69.416 197.816 68.2853 195.576 66.024C193.336 63.7413 192.216 61 192.216 57.8ZM212.44 57.8C212.44 55.3253 211.608 53.256 209.944 51.592C208.323 49.9067 206.275 49.064 203.8 49.064C201.347 49.064 199.288 49.9067 197.624 51.592C195.981 53.2773 195.16 55.3467 195.16 57.8C195.16 60.232 195.981 62.3013 197.624 64.008C199.288 65.672 201.347 66.504 203.8 66.504C206.275 66.504 208.323 65.672 209.944 64.008C211.608 62.3013 212.44 60.232 212.44 57.8ZM216.914 53H230.61V55.688H225.17V69H222.386V55.688H216.914V53ZM233.049 53H246.906V69H244.122V55.656H235.834V69H233.049V53ZM259.975 52.584C262.215 52.584 264.125 53.4053 265.703 55.048C267.282 56.6907 268.071 58.6747 268.071 61C268.071 63.3467 267.282 65.3413 265.703 66.984C264.146 68.6053 262.237 69.416 259.975 69.416C257.33 69.416 255.314 68.36 253.927 66.248V75.4H251.143V53H253.927V55.752C255.314 53.64 257.33 52.584 259.975 52.584ZM259.623 66.728C261.223 66.728 262.567 66.184 263.655 65.096C264.743 63.9653 265.287 62.6 265.287 61C265.287 59.3787 264.743 58.024 263.655 56.936C262.567 55.8267 261.223 55.272 259.623 55.272C258.002 55.272 256.647 55.8267 255.559 56.936C254.471 58.024 253.927 59.3787 253.927 61C253.927 62.6 254.471 63.9653 255.559 65.096C256.647 66.184 258.002 66.728 259.623 66.728ZM284.641 55.752V53H287.425V69H284.641V66.248C283.276 68.36 281.26 69.416 278.593 69.416C276.332 69.416 274.423 68.6053 272.865 66.984C271.287 65.3413 270.497 63.3467 270.497 61C270.497 58.6747 271.287 56.6907 272.865 55.048C274.444 53.4053 276.353 52.584 278.593 52.584C281.26 52.584 283.276 53.64 284.641 55.752ZM278.945 66.728C280.567 66.728 281.921 66.184 283.009 65.096C284.097 63.9653 284.641 62.6 284.641 61C284.641 59.3787 284.097 58.024 283.009 56.936C281.921 55.8267 280.567 55.272 278.945 55.272C277.345 55.272 276.001 55.8267 274.913 56.936C273.825 58.024 273.281 59.3787 273.281 61C273.281 62.6 273.825 63.9653 274.913 65.096C276.001 66.184 277.345 66.728 278.945 66.728ZM302.299 60.776C303.942 61.4587 304.763 62.696 304.763 64.488C304.763 65.8533 304.315 66.952 303.419 67.784C302.523 68.5947 301.265 69 299.643 69H291.643V53H299.003C300.582 53 301.809 53.3947 302.683 54.184C303.579 54.9733 304.027 56.0293 304.027 57.352C304.027 58.888 303.451 60.0293 302.299 60.776ZM298.875 55.496H294.363V59.688H298.875C300.497 59.688 301.307 58.9733 301.307 57.544C301.307 56.1787 300.497 55.496 298.875 55.496ZM294.363 66.472H299.483C300.294 66.472 300.913 66.28 301.339 65.896C301.787 65.512 302.011 64.968 302.011 64.264C302.011 63.6027 301.787 63.0907 301.339 62.728C300.913 62.344 300.294 62.152 299.483 62.152H294.363V66.472ZM310.52 64.232L319.384 53H321.624V69H318.872V57.768L310.008 69H307.768V53H310.52V64.232ZM324.07 53H337.766V55.688H332.326V69H329.542V55.688H324.07V53ZM342.99 58.76H346.958C348.558 58.76 349.88 59.24 350.926 60.2C351.992 61.1387 352.526 62.3653 352.526 63.88C352.526 65.3947 351.992 66.632 350.926 67.592C349.859 68.5307 348.536 69 346.958 69H340.206V53H342.99V58.76ZM342.99 66.408H346.958C347.768 66.408 348.44 66.1733 348.974 65.704C349.507 65.2347 349.774 64.6267 349.774 63.88C349.774 63.1333 349.496 62.5253 348.942 62.056C348.408 61.5653 347.747 61.32 346.958 61.32H342.99V66.408ZM377.278 53V66.344H379.486V73.288H376.734V69H364.734V73.288H361.982V66.344H363.934C364.958 64.936 365.47 62.9627 365.47 60.424V53H377.278ZM367.102 66.344H374.526V55.592H368.222V60.424C368.222 62.7707 367.849 64.744 367.102 66.344ZM395.11 55.752V53H397.894V69H395.11V66.248C393.745 68.36 391.729 69.416 389.062 69.416C386.801 69.416 384.891 68.6053 383.334 66.984C381.755 65.3413 380.966 63.3467 380.966 61C380.966 58.6747 381.755 56.6907 383.334 55.048C384.913 53.4053 386.822 52.584 389.062 52.584C391.729 52.584 393.745 53.64 395.11 55.752ZM389.414 66.728C391.035 66.728 392.39 66.184 393.478 65.096C394.566 63.9653 395.11 62.6 395.11 61C395.11 59.3787 394.566 58.024 393.478 56.936C392.39 55.8267 391.035 55.272 389.414 55.272C387.814 55.272 386.47 55.8267 385.382 56.936C384.294 58.024 383.75 59.3787 383.75 61C383.75 62.6 384.294 63.9653 385.382 65.096C386.47 66.184 387.814 66.728 389.414 66.728ZM413.184 59.656V53H415.968V69H413.184V62.312H404.896V69H402.112V53H404.896V59.656H413.184ZM431.278 59.656V53H434.062V69H431.278V62.312H422.99V69H420.206V53H422.99V59.656H431.278ZM441.084 58.76H445.052C446.652 58.76 447.974 59.24 449.02 60.2C450.086 61.1387 450.62 62.3653 450.62 63.88C450.62 65.3947 450.086 66.632 449.02 67.592C447.953 68.5307 446.63 69 445.052 69H438.299V53H441.084V58.76ZM452.7 69V53H455.484V69H452.7ZM441.084 66.408H445.052C445.862 66.408 446.534 66.1733 447.068 65.704C447.601 65.2347 447.868 64.6267 447.868 63.88C447.868 63.1333 447.59 62.5253 447.036 62.056C446.502 61.5653 445.841 61.32 445.052 61.32H441.084V66.408ZM475.097 62.28H461.689C461.966 63.688 462.617 64.7973 463.641 65.608C464.665 66.3973 465.945 66.792 467.481 66.792C469.593 66.792 471.129 66.0133 472.089 64.456L474.457 65.8C472.878 68.2107 470.532 69.416 467.417 69.416C464.9 69.416 462.83 68.6267 461.209 67.048C459.63 65.4267 458.841 63.4107 458.841 61C458.841 58.568 459.62 56.5627 461.177 54.984C462.734 53.384 464.75 52.584 467.225 52.584C469.572 52.584 471.481 53.416 472.953 55.08C474.446 56.7013 475.193 58.6853 475.193 61.032C475.193 61.4373 475.161 61.8533 475.097 62.28ZM467.225 55.208C465.753 55.208 464.516 55.624 463.513 56.456C462.532 57.288 461.924 58.4187 461.689 59.848H472.377C472.142 58.376 471.556 57.2347 470.617 56.424C469.678 55.6133 468.548 55.208 467.225 55.208Z" fill="white"></path> <g opacity="0.8"> <path d="M142.25 73.4167L142.688 72.2459H142.688L142.25 73.4167ZM132.496 63.006L131.404 63.6142H131.404L132.496 63.006ZM133.38 58.8794L132.599 57.9033L132.599 57.9033L133.38 58.8794ZM138.055 59.1384L138.939 58.2545L138.055 59.1384ZM139.5 60.5834L138.616 61.4673C138.974 61.8248 139.511 61.9317 139.978 61.7383C140.445 61.5448 140.75 61.089 140.75 60.5834H139.5ZM142.833 55.5417C142.833 56.2321 143.393 56.7917 144.083 56.7917C144.774 56.7917 145.333 56.2321 145.333 55.5417H142.833ZM147.417 57.3751C147.417 58.0654 147.976 58.6251 148.667 58.6251C149.357 58.6251 149.917 58.0654 149.917 57.3751H147.417ZM152 59.2084C152 59.8988 152.56 60.4584 153.25 60.4584C153.94 60.4584 154.5 59.8988 154.5 59.2084H152ZM157.025 69.1732L158.047 69.8937L158.047 69.8937L157.025 69.1732ZM152.333 73.4167L151.841 72.2678L151.841 72.2678L152.333 73.4167ZM134.884 41.3662C134.396 40.878 133.604 40.878 133.116 41.3662C132.628 41.8544 132.628 42.6458 133.116 43.134L134.884 41.3662ZM135.866 45.884C136.354 46.3721 137.146 46.3721 137.634 45.884C138.122 45.3958 138.122 44.6044 137.634 44.1162L135.866 45.884ZM141.65 37.4612C141.536 36.7803 140.892 36.3203 140.211 36.4338C139.53 36.5472 139.07 37.1913 139.184 37.8722L141.65 37.4612ZM140.1 43.3722C140.214 44.0532 140.858 44.5132 141.539 44.3997C142.22 44.2862 142.68 43.6422 142.566 42.9612L140.1 43.3722ZM148.79 42.0268C149.173 41.4524 149.018 40.6763 148.443 40.2934C147.869 39.9104 147.093 40.0656 146.71 40.64L148.79 42.0268ZM144.877 43.39C144.494 43.9645 144.649 44.7405 145.223 45.1235C145.798 45.5064 146.574 45.3512 146.957 44.7768L144.877 43.39ZM142.688 72.2459C140.822 71.5481 139.005 69.9519 137.385 68.0188C135.784 66.1075 134.472 63.9841 133.588 62.3978L131.404 63.6142C132.329 65.275 133.728 67.5469 135.469 69.6243C137.191 71.6798 139.346 73.6653 141.812 74.5876L142.688 72.2459ZM133.588 62.3978C133.13 61.5741 133.343 60.5098 134.161 59.8555L132.599 57.9033C130.911 59.254 130.302 61.634 131.404 63.6142L133.588 62.3978ZM134.161 59.8555C135.06 59.1361 136.357 59.2078 137.171 60.0223L138.939 58.2545C137.224 56.5393 134.493 56.3881 132.599 57.9033L134.161 59.8555ZM137.171 60.0223L138.616 61.4673L140.384 59.6995L138.939 58.2545L137.171 60.0223ZM140.75 60.5834V50.0417H138.25V60.5834H140.75ZM140.75 50.0417C140.75 49.4665 141.216 49.0001 141.792 49.0001V46.5001C139.836 46.5001 138.25 48.0858 138.25 50.0417H140.75ZM141.792 49.0001C142.367 49.0001 142.833 49.4665 142.833 50.0417H145.333C145.333 48.0858 143.748 46.5001 141.792 46.5001V49.0001ZM142.833 50.0417V55.5417H145.333V50.0417H142.833ZM145.333 55.5417C145.333 54.9665 145.8 54.5001 146.375 54.5001V52.0001C144.419 52.0001 142.833 53.5858 142.833 55.5417H145.333ZM146.375 54.5001C146.95 54.5001 147.417 54.9665 147.417 55.5417H149.917C149.917 53.5858 148.331 52.0001 146.375 52.0001V54.5001ZM147.417 55.5417V57.3751H149.917V55.5417H147.417ZM149.917 57.3751C149.917 56.7998 150.383 56.3334 150.958 56.3334V53.8334C149.002 53.8334 147.417 55.4191 147.417 57.3751H149.917ZM150.958 56.3334C151.534 56.3334 152 56.7998 152 57.3751H154.5C154.5 55.4191 152.914 53.8334 150.958 53.8334V56.3334ZM152 57.3751V59.2084H154.5V57.3751H152ZM154.5 59.2084C154.5 58.6331 154.966 58.1667 155.542 58.1667V55.6667C153.586 55.6667 152 57.2524 152 59.2084H154.5ZM155.542 58.1667C156.117 58.1667 156.583 58.6331 156.583 59.2084H159.083C159.083 57.2524 157.498 55.6667 155.542 55.6667V58.1667ZM156.583 59.2084V66.4207H159.083V59.2084H156.583ZM156.583 66.4207C156.583 67.2027 156.39 67.9052 156.004 68.4528L158.047 69.8937C158.792 68.8376 159.083 67.601 159.083 66.4207H156.583ZM156.004 68.4527C155.087 69.7531 153.569 71.5275 151.841 72.2678L152.826 74.5657C155.232 73.5343 157.087 71.2539 158.047 69.8937L156.004 68.4527ZM151.841 72.2678C150.355 72.9047 148.999 73.2307 147.579 73.2442C146.152 73.2578 144.588 72.9567 142.688 72.2459L141.812 74.5876C143.917 75.3749 145.791 75.7613 147.603 75.7441C149.42 75.7268 151.104 75.3038 152.826 74.5657L151.841 72.2678ZM133.116 43.134L135.866 45.884L137.634 44.1162L134.884 41.3662L133.116 43.134ZM139.184 37.8722L140.1 43.3722L142.566 42.9612L141.65 37.4612L139.184 37.8722ZM146.71 40.64L144.877 43.39L146.957 44.7768L148.79 42.0268L146.71 40.64Z" fill="white"></path> </g> <defs> <filter id="filter0_i_192_38" x="0" y="28" width="600" height="96" filterUnits="userSpaceOnUse" color-interpolation-filters="sRGB"> <feFlood flood-opacity="0" result="BackgroundImageFix"></feFlood> <feBlend mode="normal" in="SourceGraphic" in2="BackgroundImageFix" result="shape"></feBlend> <feColorMatrix in="SourceAlpha" type="matrix" values="0 0 0 0 0 0 0 0 0 0 0 0 0 0 0 0 0 0 127 0" result="hardAlpha"></feColorMatrix> <feOffset></feOffset> <feGaussianBlur stdDeviation="8"></feGaussianBlur> <feComposite in2="hardAlpha" operator="arithmetic" k2="-1" k3="1"></feComposite> <feColorMatrix type="matrix" values="0 0 0 0 0.25098 0 0 0 0 0.709804 0 0 0 0 0.984314 0 0 0 1 0"></feColorMatrix> <feBlend mode="normal" in2="shape" result="effect1_innerShadow_192_38"></feBlend> </filter> <filter id="filter1_i_192_38" x="0" y="0" width="600" height="120" filterUnits="userSpaceOnUse" color-interpolation-filters="sRGB"> <feFlood flood-opacity="0" result="BackgroundImageFix"></feFlood> <feBlend mode="normal" in="SourceGraphic" in2="BackgroundImageFix" result="shape"></feBlend> <feColorMatrix in="SourceAlpha" type="matrix" values="0 0 0 0 0 0 0 0 0 0 0 0 0 0 0 0 0 0 127 0" result="hardAlpha"></feColorMatrix> <feOffset></feOffset> <feGaussianBlur stdDeviation="12"></feGaussianBlur> <feComposite in2="hardAlpha" operator="arithmetic" k2="-1" k3="1"></feComposite> <feColorMatrix type="matrix" values="0 0 0 0 0.45 0 0 0 0 0.794118 0 0 0 0 1 0 0 0 1 0"></feColorMatrix> <feBlend mode="normal" in2="shape" result="effect1_innerShadow_192_38"></feBlend> </filter> <linearGradient id="paint0_linear_192_38" x1="600" y1="124" x2="103.193" y2="-155.454" gradientUnits="userSpaceOnUse"> <stop stop-color="#0E4791"></stop> <stop offset="1" stop-color="#176496"></stop> </linearGradient> <linearGradient id="paint1_linear_192_38" x1="600" y1="120" x2="56.1331" y2="-124.74" gradientUnits="userSpaceOnUse"> <stop stop-color="#1979F2"></stop> <stop offset="1" stop-color="#40B5FB"></stop> </linearGradient> </defs> </svg> 