<?xml version="1.0" encoding="UTF-8"?> <svg xmlns="http://www.w3.org/2000/svg" width="300" height="84" viewBox="0 0 300 84" fill="none"> <g filter="url(#filter0_i_162_39)"> <rect y="4" width="300" height="80" rx="8" fill="url(#paint0_linear_162_39)"></rect> </g> <g filter="url(#filter1_i_162_39)"> <rect width="300" height="80" rx="8" fill="url(#paint1_linear_162_39)"></rect> </g> <path d="M85.76 38C85.76 35.9733 86.46 34.26 87.86 32.86C89.26 31.4467 90.9733 30.74 93 30.74C95.0267 30.74 96.74 31.4467 98.14 32.86C99.5533 34.26 100.26 35.9733 100.26 38C100.26 40.0133 99.5533 41.7267 98.14 43.14C96.74 44.5533 95.0267 45.26 93 45.26C90.9733 45.26 89.26 44.5533 87.86 43.14C86.46 41.7133 85.76 40 85.76 38ZM98.4 38C98.4 36.4533 97.88 35.16 96.84 34.12C95.8267 33.0667 94.5467 32.54 93 32.54C91.4667 32.54 90.18 33.0667 89.14 34.12C88.1133 35.1733 87.6 36.4667 87.6 38C87.6 39.52 88.1133 40.8133 89.14 41.88C90.18 42.92 91.4667 43.44 93 43.44C94.5467 43.44 95.8267 42.92 96.84 41.88C97.88 40.8133 98.4 39.52 98.4 38ZM101.196 35H109.756V36.68H106.356V45H104.616V36.68H101.196V35ZM111.281 35H119.941V45H118.201V36.66H113.021V45H111.281V35ZM128.11 34.74C129.51 34.74 130.703 35.2533 131.69 36.28C132.676 37.3067 133.17 38.5467 133.17 40C133.17 41.4667 132.676 42.7133 131.69 43.74C130.716 44.7533 129.523 45.26 128.11 45.26C126.456 45.26 125.196 44.6 124.33 43.28V49H122.59V35H124.33V36.72C125.196 35.4 126.456 34.74 128.11 34.74ZM127.89 43.58C128.89 43.58 129.73 43.24 130.41 42.56C131.09 41.8533 131.43 41 131.43 40C131.43 38.9867 131.09 38.14 130.41 37.46C129.73 36.7667 128.89 36.42 127.89 36.42C126.876 36.42 126.03 36.7667 125.35 37.46C124.67 38.14 124.33 38.9867 124.33 40C124.33 41 124.67 41.8533 125.35 42.56C126.03 43.24 126.876 43.58 127.89 43.58ZM143.526 36.72V35H145.266V45H143.526V43.28C142.672 44.6 141.412 45.26 139.746 45.26C138.332 45.26 137.139 44.7533 136.166 43.74C135.179 42.7133 134.686 41.4667 134.686 40C134.686 38.5467 135.179 37.3067 136.166 36.28C137.152 35.2533 138.346 34.74 139.746 34.74C141.412 34.74 142.672 35.4 143.526 36.72ZM139.966 43.58C140.979 43.58 141.826 43.24 142.506 42.56C143.186 41.8533 143.526 41 143.526 40C143.526 38.9867 143.186 38.14 142.506 37.46C141.826 36.7667 140.979 36.42 139.966 36.42C138.966 36.42 138.126 36.7667 137.446 37.46C136.766 38.14 136.426 38.9867 136.426 40C136.426 41 136.766 41.8533 137.446 42.56C138.126 43.24 138.966 43.58 139.966 43.58ZM154.562 39.86C155.589 40.2867 156.102 41.06 156.102 42.18C156.102 43.0333 155.822 43.72 155.262 44.24C154.702 44.7467 153.915 45 152.902 45H147.902V35H152.502C153.489 35 154.255 35.2467 154.802 35.74C155.362 36.2333 155.642 36.8933 155.642 37.72C155.642 38.68 155.282 39.3933 154.562 39.86ZM152.422 36.56H149.602V39.18H152.422C153.435 39.18 153.942 38.7333 153.942 37.84C153.942 36.9867 153.435 36.56 152.422 36.56ZM149.602 43.42H152.802C153.309 43.42 153.695 43.3 153.962 43.06C154.242 42.82 154.382 42.48 154.382 42.04C154.382 41.6267 154.242 41.3067 153.962 41.08C153.695 40.84 153.309 40.72 152.802 40.72H149.602V43.42ZM159.7 42.02L165.24 35H166.64V45H164.92V37.98L159.38 45H157.98V35H159.7V42.02ZM168.169 35H176.729V36.68H173.329V45H171.589V36.68H168.169V35ZM179.994 38.6H182.474C183.474 38.6 184.3 38.9 184.954 39.5C185.62 40.0867 185.954 40.8533 185.954 41.8C185.954 42.7467 185.62 43.52 184.954 44.12C184.287 44.7067 183.46 45 182.474 45H178.254V35H179.994V38.6ZM179.994 43.38H182.474C182.98 43.38 183.4 43.2333 183.734 42.94C184.067 42.6467 184.234 42.2667 184.234 41.8C184.234 41.3333 184.06 40.9533 183.714 40.66C183.38 40.3533 182.967 40.2 182.474 40.2H179.994V43.38ZM198.224 39.88C199.331 40.3467 199.884 41.14 199.884 42.26C199.884 43.1267 199.544 43.8467 198.864 44.42C198.184 44.98 197.244 45.26 196.044 45.26C194.044 45.26 192.704 44.46 192.024 42.86L193.484 42C193.857 43.0933 194.717 43.64 196.064 43.64C196.717 43.64 197.231 43.5 197.604 43.22C197.977 42.94 198.164 42.5667 198.164 42.1C198.164 41.7 198.011 41.3733 197.704 41.12C197.411 40.8667 197.011 40.74 196.504 40.74H195.044V39.16H196.124C196.631 39.16 197.024 39.04 197.304 38.8C197.584 38.5467 197.724 38.2067 197.724 37.78C197.724 37.34 197.557 36.9933 197.224 36.74C196.891 36.4733 196.444 36.34 195.884 36.34C194.764 36.34 194.004 36.8133 193.604 37.76L192.184 36.94C192.891 35.4733 194.124 34.74 195.884 34.74C196.951 34.74 197.804 35.02 198.444 35.58C199.097 36.1267 199.424 36.8133 199.424 37.64C199.424 38.6533 199.024 39.4 198.224 39.88ZM210.049 36.72V35H211.789V45H210.049V43.28C209.196 44.6 207.936 45.26 206.269 45.26C204.856 45.26 203.663 44.7533 202.689 43.74C201.703 42.7133 201.209 41.4667 201.209 40C201.209 38.5467 201.703 37.3067 202.689 36.28C203.676 35.2533 204.869 34.74 206.269 34.74C207.936 34.74 209.196 35.4 210.049 36.72ZM206.489 43.58C207.503 43.58 208.349 43.24 209.029 42.56C209.709 41.8533 210.049 41 210.049 40C210.049 38.9867 209.709 38.14 209.029 37.46C208.349 36.7667 207.503 36.42 206.489 36.42C205.489 36.42 204.649 36.7667 203.969 37.46C203.289 38.14 202.949 38.9867 202.949 40C202.949 41 203.289 41.8533 203.969 42.56C204.649 43.24 205.489 43.58 206.489 43.58ZM217.645 35H221.905V45H220.185V41.4H218.725L215.925 45H213.805L216.725 41.3C215.965 41.1133 215.352 40.74 214.885 40.18C214.432 39.62 214.205 38.9667 214.205 38.22C214.205 37.3 214.532 36.5333 215.185 35.92C215.839 35.3067 216.659 35 217.645 35ZM217.705 39.84H220.185V36.62H217.705C217.199 36.62 216.772 36.7733 216.425 37.08C216.092 37.3733 215.925 37.76 215.925 38.24C215.925 38.7067 216.092 39.0933 216.425 39.4C216.772 39.6933 217.199 39.84 217.705 39.84ZM231.203 39.86C232.229 40.2867 232.743 41.06 232.743 42.18C232.743 43.0333 232.463 43.72 231.903 44.24C231.343 44.7467 230.556 45 229.543 45H224.543V35H229.143C230.129 35 230.896 35.2467 231.443 35.74C232.003 36.2333 232.283 36.8933 232.283 37.72C232.283 38.68 231.923 39.3933 231.203 39.86ZM229.063 36.56H226.243V39.18H229.063C230.076 39.18 230.583 38.7333 230.583 37.84C230.583 36.9867 230.076 36.56 229.063 36.56ZM226.243 43.42H229.443C229.949 43.42 230.336 43.3 230.603 43.06C230.883 42.82 231.023 42.48 231.023 42.04C231.023 41.6267 230.883 41.3067 230.603 41.08C230.336 40.84 229.949 40.72 229.443 40.72H226.243V43.42ZM238.141 39.84L243.081 45H240.921L236.361 40.26V45H234.621V35H236.361V39.42L240.681 35H242.921L238.141 39.84ZM248.506 42.84L251.386 35H253.246L249.166 45.62C248.739 46.7533 248.139 47.6133 247.366 48.2C246.593 48.8 245.713 49.0667 244.726 49V47.38C245.939 47.4733 246.839 46.8067 247.426 45.38L247.586 45.02L243.246 35H245.086L248.506 42.84Z" fill="white"></path> <g opacity="0.8"> <path d="M55.5 47.5L55.7627 46.7975H55.7627L55.5 47.5ZM50.1799 41.8214L49.5246 42.1863L49.5246 42.1863L50.1799 41.8214ZM50.6618 39.5705L50.1933 38.9849L50.1933 38.9849L50.6618 39.5705ZM53.2118 39.7118L53.7421 39.1815L53.2118 39.7118ZM54 40.5L53.4697 41.0303C53.6842 41.2448 54.0068 41.309 54.287 41.1929C54.5673 41.0768 54.75 40.8033 54.75 40.5H54ZM55.75 37.75C55.75 38.1642 56.0858 38.5 56.5 38.5C56.9142 38.5 57.25 38.1642 57.25 37.75H55.75ZM58.25 38.75C58.25 39.1642 58.5858 39.5 59 39.5C59.4142 39.5 59.75 39.1642 59.75 38.75H58.25ZM60.75 39.75C60.75 40.1642 61.0858 40.5 61.5 40.5C61.9142 40.5 62.25 40.1642 62.25 39.75H60.75ZM63.5593 45.1854L64.1721 45.6176L64.1722 45.6176L63.5593 45.1854ZM61 47.5L60.7046 46.8106L60.7046 46.8106L61 47.5ZM51.5303 29.9697C51.2374 29.6768 50.7626 29.6768 50.4697 29.9697C50.1768 30.2626 50.1768 30.7374 50.4697 31.0303L51.5303 29.9697ZM51.9697 32.5303C52.2626 32.8232 52.7374 32.8232 53.0303 32.5303C53.3232 32.2374 53.3232 31.7626 53.0303 31.4697L51.9697 32.5303ZM55.2398 27.8767C55.1717 27.4681 54.7853 27.1921 54.3767 27.2602C53.9681 27.3283 53.6921 27.7147 53.7602 28.1233L55.2398 27.8767ZM54.2602 31.1233C54.3283 31.5319 54.7147 31.8079 55.1233 31.7398C55.5319 31.6717 55.8079 31.2853 55.7398 30.8767L54.2602 31.1233ZM59.124 30.416C59.3538 30.0714 59.2607 29.6057 58.916 29.376C58.5714 29.1462 58.1057 29.2393 57.876 29.584L59.124 30.416ZM56.876 31.084C56.6462 31.4286 56.7393 31.8943 57.084 32.124C57.4286 32.3538 57.8943 32.2607 58.124 31.916L56.876 31.084ZM55.7627 46.7975C54.7613 46.423 53.7793 45.5629 52.8986 44.5119C52.029 43.4739 51.3159 42.3197 50.8351 41.4565L49.5246 42.1863C50.0303 43.0942 50.7957 44.3375 51.7489 45.4752C52.691 46.5997 53.8758 47.6933 55.2373 48.2025L55.7627 46.7975ZM50.8351 41.4565C50.6024 41.0387 50.708 40.4941 51.1303 40.1562L50.1933 38.9849C49.2487 39.7406 48.9055 41.0747 49.5246 42.1863L50.8351 41.4565ZM51.1303 40.1562C51.5938 39.7855 52.2618 39.8225 52.6815 40.2421L53.7421 39.1815C52.782 38.2213 51.2536 38.1367 50.1933 38.9849L51.1303 40.1562ZM52.6815 40.2421L53.4697 41.0303L54.5303 39.9697L53.7421 39.1815L52.6815 40.2421ZM54.75 40.5V34.75H53.25V40.5H54.75ZM54.75 34.75C54.75 34.4739 54.9739 34.25 55.25 34.25V32.75C54.1454 32.75 53.25 33.6454 53.25 34.75H54.75ZM55.25 34.25C55.5261 34.25 55.75 34.4739 55.75 34.75H57.25C57.25 33.6454 56.3546 32.75 55.25 32.75V34.25ZM55.75 34.75V37.75H57.25V34.75H55.75ZM57.25 37.75C57.25 37.4739 57.4739 37.25 57.75 37.25V35.75C56.6454 35.75 55.75 36.6454 55.75 37.75H57.25ZM57.75 37.25C58.0261 37.25 58.25 37.4739 58.25 37.75H59.75C59.75 36.6454 58.8546 35.75 57.75 35.75V37.25ZM58.25 37.75V38.75H59.75V37.75H58.25ZM59.75 38.75C59.75 38.4739 59.9739 38.25 60.25 38.25V36.75C59.1454 36.75 58.25 37.6454 58.25 38.75H59.75ZM60.25 38.25C60.5261 38.25 60.75 38.4739 60.75 38.75H62.25C62.25 37.6454 61.3546 36.75 60.25 36.75V38.25ZM60.75 38.75V39.75H62.25V38.75H60.75ZM62.25 39.75C62.25 39.4739 62.4739 39.25 62.75 39.25V37.75C61.6454 37.75 60.75 38.6454 60.75 39.75H62.25ZM62.75 39.25C63.0261 39.25 63.25 39.4739 63.25 39.75H64.75C64.75 38.6454 63.8546 37.75 62.75 37.75V39.25ZM63.25 39.75V43.684H64.75V39.75H63.25ZM63.25 43.684C63.25 44.0997 63.1472 44.4683 62.9464 44.7531L64.1722 45.6176C64.5882 45.0277 64.75 44.3386 64.75 43.684H63.25ZM62.9464 44.7531C62.4472 45.4607 61.6284 46.4147 60.7046 46.8106L61.2954 48.1894C62.6267 47.6189 63.6477 46.3612 64.1721 45.6176L62.9464 44.7531ZM60.7046 46.8106C59.9004 47.1553 59.17 47.3305 58.406 47.3377C57.6383 47.345 56.7938 47.1831 55.7627 46.7975L55.2373 48.2025C56.3912 48.634 57.4218 48.8471 58.4203 48.8376C59.4225 48.8281 60.3496 48.5947 61.2955 48.1894L60.7046 46.8106ZM50.4697 31.0303L51.9697 32.5303L53.0303 31.4697L51.5303 29.9697L50.4697 31.0303ZM53.7602 28.1233L54.2602 31.1233L55.7398 30.8767L55.2398 27.8767L53.7602 28.1233ZM57.876 29.584L56.876 31.084L58.124 31.916L59.124 30.416L57.876 29.584Z" fill="white"></path> </g> <defs> <filter id="filter0_i_162_39" x="0" y="4" width="300" height="80" filterUnits="userSpaceOnUse" color-interpolation-filters="sRGB"> <feFlood flood-opacity="0" result="BackgroundImageFix"></feFlood> <feBlend mode="normal" in="SourceGraphic" in2="BackgroundImageFix" result="shape"></feBlend> <feColorMatrix in="SourceAlpha" type="matrix" values="0 0 0 0 0 0 0 0 0 0 0 0 0 0 0 0 0 0 127 0" result="hardAlpha"></feColorMatrix> <feOffset></feOffset> <feGaussianBlur stdDeviation="8"></feGaussianBlur> <feComposite in2="hardAlpha" operator="arithmetic" k2="-1" k3="1"></feComposite> <feColorMatrix type="matrix" values="0 0 0 0 0.25098 0 0 0 0 0.709804 0 0 0 0 0.984314 0 0 0 1 0"></feColorMatrix> <feBlend mode="normal" in2="shape" result="effect1_innerShadow_162_39"></feBlend> </filter> <filter id="filter1_i_162_39" x="0" y="0" width="300" height="80" filterUnits="userSpaceOnUse" color-interpolation-filters="sRGB"> <feFlood flood-opacity="0" result="BackgroundImageFix"></feFlood> <feBlend mode="normal" in="SourceGraphic" in2="BackgroundImageFix" result="shape"></feBlend> <feColorMatrix in="SourceAlpha" type="matrix" values="0 0 0 0 0 0 0 0 0 0 0 0 0 0 0 0 0 0 127 0" result="hardAlpha"></feColorMatrix> <feOffset></feOffset> <feGaussianBlur stdDeviation="12"></feGaussianBlur> <feComposite in2="hardAlpha" operator="arithmetic" k2="-1" k3="1"></feComposite> <feColorMatrix type="matrix" values="0 0 0 0 0.45 0 0 0 0 0.794118 0 0 0 0 1 0 0 0 1 0"></feColorMatrix> <feBlend mode="normal" in2="shape" result="effect1_innerShadow_162_39"></feBlend> </filter> <linearGradient id="paint0_linear_162_39" x1="300" y1="84" x2="6.43849" y2="-15.077" gradientUnits="userSpaceOnUse"> <stop stop-color="#0E4791"></stop> <stop offset="1" stop-color="#176496"></stop> </linearGradient> <linearGradient id="paint1_linear_162_39" x1="300" y1="80" x2="6.43849" y2="-19.077" gradientUnits="userSpaceOnUse"> <stop stop-color="#1979F2"></stop> <stop offset="1" stop-color="#40B5FB"></stop> </linearGradient> </defs> </svg> 