<?xml version="1.0" encoding="UTF-8"?> <svg xmlns="http://www.w3.org/2000/svg" width="400" height="124" viewBox="0 0 400 124" fill="none"> <g filter="url(#filter0_i_114_37)"> <rect y="28" width="400" height="96" rx="8" fill="url(#paint0_linear_114_37)"></rect> </g> <g filter="url(#filter1_i_114_37)"> <rect width="400" height="120" rx="8" fill="url(#paint1_linear_114_37)"></rect> </g> <path d="M129.4 46.6H145.656V69H142.68V49.416H132.376V69H129.4V46.6ZM159.007 52.584C161.247 52.584 163.156 53.4053 164.735 55.048C166.313 56.6907 167.103 58.6747 167.103 61C167.103 63.3467 166.313 65.3413 164.735 66.984C163.177 68.6053 161.268 69.416 159.007 69.416C156.361 69.416 154.345 68.36 152.959 66.248V75.4H150.174V53H152.959V55.752C154.345 53.64 156.361 52.584 159.007 52.584ZM158.655 66.728C160.255 66.728 161.599 66.184 162.687 65.096C163.775 63.9653 164.319 62.6 164.319 61C164.319 59.3787 163.775 58.024 162.687 56.936C161.599 55.8267 160.255 55.272 158.655 55.272C157.033 55.272 155.679 55.8267 154.591 56.936C153.503 58.024 152.959 59.3787 152.959 61C152.959 62.6 153.503 63.9653 154.591 65.096C155.679 66.184 157.033 66.728 158.655 66.728ZM183.929 66.984C182.307 68.6053 180.313 69.416 177.945 69.416C175.577 69.416 173.582 68.6053 171.961 66.984C170.339 65.3627 169.529 63.368 169.529 61C169.529 58.632 170.339 56.6373 171.961 55.016C173.582 53.3947 175.577 52.584 177.945 52.584C180.313 52.584 182.307 53.3947 183.929 55.016C185.571 56.6587 186.392 58.6533 186.392 61C186.392 63.3467 185.571 65.3413 183.929 66.984ZM177.945 66.696C179.545 66.696 180.889 66.152 181.977 65.064C183.065 63.976 183.609 62.6213 183.609 61C183.609 59.3787 183.065 58.024 181.977 56.936C180.889 55.848 179.545 55.304 177.945 55.304C176.366 55.304 175.033 55.848 173.945 56.936C172.857 58.024 172.312 59.3787 172.312 61C172.312 62.6213 172.857 63.976 173.945 65.064C175.033 66.152 176.366 66.696 177.945 66.696ZM200.939 50.6H192.299V48.168H200.939V50.6ZM192.427 64.232L201.291 53H203.531V69H200.779V57.768L191.915 69H189.674V53H192.427V64.232ZM205.976 53H219.672V55.688H214.232V69H211.448V55.688H205.976V53ZM224.864 64.232L233.728 53H235.968V69H233.216V57.768L224.352 69H222.112V53H224.864V64.232ZM261.71 66.984C260.088 68.6053 258.094 69.416 255.726 69.416C253.358 69.416 251.363 68.6053 249.742 66.984C248.12 65.3627 247.31 63.368 247.31 61C247.31 58.632 248.12 56.6373 249.742 55.016C251.363 53.3947 253.358 52.584 255.726 52.584C258.094 52.584 260.088 53.3947 261.71 55.016C263.352 56.6587 264.174 58.6533 264.174 61C264.174 63.3467 263.352 65.3413 261.71 66.984ZM255.726 66.696C257.326 66.696 258.67 66.152 259.758 65.064C260.846 63.976 261.39 62.6213 261.39 61C261.39 59.3787 260.846 58.024 259.758 56.936C258.67 55.848 257.326 55.304 255.726 55.304C254.147 55.304 252.814 55.848 251.726 56.936C250.638 58.024 250.094 59.3787 250.094 61C250.094 62.6213 250.638 63.976 251.726 65.064C252.814 66.152 254.147 66.696 255.726 66.696ZM267.456 53H281.312V69H278.528V55.656H270.24V69H267.456V53ZM294.382 52.584C296.622 52.584 298.531 53.4053 300.11 55.048C301.688 56.6907 302.478 58.6747 302.478 61C302.478 63.3467 301.688 65.3413 300.11 66.984C298.552 68.6053 296.643 69.416 294.382 69.416C291.736 69.416 289.72 68.36 288.334 66.248V75.4H285.549V53H288.334V55.752C289.72 53.64 291.736 52.584 294.382 52.584ZM294.03 66.728C295.63 66.728 296.974 66.184 298.062 65.096C299.15 63.9653 299.694 62.6 299.694 61C299.694 59.3787 299.15 58.024 298.062 56.936C296.974 55.8267 295.63 55.272 294.03 55.272C292.408 55.272 291.054 55.8267 289.966 56.936C288.878 58.024 288.334 59.3787 288.334 61C288.334 62.6 288.878 63.9653 289.966 65.096C291.054 66.184 292.408 66.728 294.03 66.728ZM319.304 66.984C317.682 68.6053 315.688 69.416 313.32 69.416C310.952 69.416 308.957 68.6053 307.336 66.984C305.714 65.3627 304.904 63.368 304.904 61C304.904 58.632 305.714 56.6373 307.336 55.016C308.957 53.3947 310.952 52.584 313.32 52.584C315.688 52.584 317.682 53.3947 319.304 55.016C320.946 56.6587 321.767 58.6533 321.767 61C321.767 63.3467 320.946 65.3413 319.304 66.984ZM313.32 66.696C314.92 66.696 316.264 66.152 317.352 65.064C318.44 63.976 318.984 62.6213 318.984 61C318.984 59.3787 318.44 58.024 317.352 56.936C316.264 55.848 314.92 55.304 313.32 55.304C311.741 55.304 310.408 55.848 309.32 56.936C308.232 58.024 307.688 59.3787 307.688 61C307.688 62.6213 308.232 63.976 309.32 65.064C310.408 66.152 311.741 66.696 313.32 66.696ZM332.57 69.416C330.159 69.416 328.154 68.616 326.554 67.016C324.954 65.3947 324.154 63.3893 324.154 61C324.154 58.6107 324.954 56.616 326.554 55.016C328.154 53.3947 330.159 52.584 332.57 52.584C334.148 52.584 335.567 52.968 336.826 53.736C338.084 54.4827 339.023 55.496 339.642 56.776L337.306 58.12C336.9 57.2667 336.271 56.584 335.418 56.072C334.586 55.56 333.636 55.304 332.57 55.304C330.97 55.304 329.626 55.848 328.538 56.936C327.471 58.0453 326.938 59.4 326.938 61C326.938 62.5787 327.471 63.9227 328.538 65.032C329.626 66.12 330.97 66.664 332.57 66.664C333.636 66.664 334.596 66.4187 335.45 65.928C336.303 65.416 336.954 64.7333 337.402 63.88L339.77 65.256C339.066 66.536 338.074 67.5493 336.794 68.296C335.514 69.0427 334.106 69.416 332.57 69.416Z" fill="white"></path> <g opacity="0.8"> <path d="M78.25 73.4166L78.6878 72.2458H78.6878L78.25 73.4166ZM68.4964 63.0059L67.4043 63.6141H67.4043L68.4964 63.0059ZM69.38 58.8793L68.5991 57.9032L68.5991 57.9032L69.38 58.8793ZM74.055 59.1383L74.9388 58.2544L74.055 59.1383ZM75.5 60.5833L74.6161 61.4672C74.9736 61.8247 75.5112 61.9316 75.9783 61.7381C76.4454 61.5447 76.75 61.0889 76.75 60.5833H75.5ZM78.8333 55.5416C78.8333 56.232 79.393 56.7916 80.0833 56.7916C80.7737 56.7916 81.3333 56.232 81.3333 55.5416H78.8333ZM83.4167 57.375C83.4167 58.0653 83.9763 58.625 84.6667 58.625C85.357 58.625 85.9167 58.0653 85.9167 57.375H83.4167ZM88 59.2083C88 59.8986 88.5596 60.4583 89.25 60.4583C89.9403 60.4583 90.5 59.8986 90.5 59.2083H88ZM93.0253 69.1731L94.0467 69.8936L94.0468 69.8935L93.0253 69.1731ZM88.3333 73.4166L87.8409 72.2677L87.8409 72.2677L88.3333 73.4166ZM70.8839 41.3661C70.3957 40.8779 69.6043 40.8779 69.1161 41.3661C68.6279 41.8542 68.6279 42.6457 69.1161 43.1338L70.8839 41.3661ZM71.8661 45.8838C72.3543 46.372 73.1457 46.372 73.6339 45.8838C74.122 45.3957 74.122 44.6042 73.6339 44.1161L71.8661 45.8838ZM77.6496 37.4611C77.5361 36.7802 76.8921 36.3201 76.2112 36.4336C75.5302 36.5471 75.0702 37.1912 75.1837 37.8721L77.6496 37.4611ZM76.1003 43.3721C76.2138 44.0531 76.8579 44.5131 77.5388 44.3996C78.2198 44.2861 78.6798 43.6421 78.5663 42.9611L76.1003 43.3721ZM84.79 42.0267C85.173 41.4523 85.0178 40.6762 84.4434 40.2932C83.8689 39.9103 83.0929 40.0655 82.7099 40.6399L84.79 42.0267ZM80.8766 43.3899C80.4936 43.9643 80.6489 44.7404 81.2233 45.1234C81.7977 45.5063 82.5738 45.3511 82.9567 44.7767L80.8766 43.3899ZM78.6878 72.2458C76.8219 71.548 75.0046 69.9517 73.385 68.0186C71.7837 66.1074 70.4719 63.984 69.5884 62.3977L67.4043 63.6141C68.3293 65.2749 69.7282 67.5468 71.4687 69.6242C73.1908 71.6796 75.3461 73.6652 77.8121 74.5874L78.6878 72.2458ZM69.5884 62.3977C69.1297 61.5739 69.343 60.5096 70.1608 59.8554L68.5991 57.9032C66.9108 59.2539 66.3015 61.6339 67.4043 63.6141L69.5884 62.3977ZM70.1608 59.8554C71.0602 59.1359 72.3566 59.2077 73.1711 60.0221L74.9388 58.2544C73.2236 56.5392 70.4932 56.388 68.5991 57.9032L70.1608 59.8554ZM73.1711 60.0221L74.6161 61.4672L76.3839 59.6994L74.9388 58.2544L73.1711 60.0221ZM76.75 60.5833V50.0416H74.25V60.5833H76.75ZM76.75 50.0416C76.75 49.4663 77.2164 49 77.7917 49V46.5C75.8357 46.5 74.25 48.0856 74.25 50.0416H76.75ZM77.7917 49C78.3669 49 78.8333 49.4663 78.8333 50.0416H81.3333C81.3333 48.0856 79.7476 46.5 77.7917 46.5V49ZM78.8333 50.0416V55.5416H81.3333V50.0416H78.8333ZM81.3333 55.5416C81.3333 54.9663 81.7997 54.5 82.375 54.5V52C80.419 52 78.8333 53.5856 78.8333 55.5416H81.3333ZM82.375 54.5C82.9503 54.5 83.4167 54.9663 83.4167 55.5416H85.9167C85.9167 53.5856 84.331 52 82.375 52V54.5ZM83.4167 55.5416V57.375H85.9167V55.5416H83.4167ZM85.9167 57.375C85.9167 56.7997 86.383 56.3333 86.9583 56.3333V53.8333C85.0023 53.8333 83.4167 55.419 83.4167 57.375H85.9167ZM86.9583 56.3333C87.5336 56.3333 88 56.7997 88 57.375H90.5C90.5 55.419 88.9143 53.8333 86.9583 53.8333V56.3333ZM88 57.375V59.2083H90.5V57.375H88ZM90.5 59.2083C90.5 58.633 90.9664 58.1666 91.5417 58.1666V55.6666C89.5857 55.6666 88 57.2523 88 59.2083H90.5ZM91.5417 58.1666C92.1169 58.1666 92.5833 58.633 92.5833 59.2083H95.0833C95.0833 57.2523 93.4976 55.6666 91.5417 55.6666V58.1666ZM92.5833 59.2083V66.4206H95.0833V59.2083H92.5833ZM92.5833 66.4206C92.5833 67.2026 92.3899 67.9051 92.0038 68.4527L94.0468 69.8935C94.7916 68.8375 95.0833 67.6009 95.0833 66.4206H92.5833ZM92.0038 68.4526C91.0866 69.753 89.5685 71.5273 87.8409 72.2677L88.8257 74.5656C91.2323 73.5342 93.0873 71.2538 94.0467 69.8936L92.0038 68.4526ZM87.8409 72.2677C86.3548 72.9046 84.9994 73.2306 83.5789 73.2441C82.1521 73.2577 80.5884 72.9566 78.6878 72.2458L77.8121 74.5874C79.9175 75.3748 81.7913 75.7612 83.6026 75.744C85.4202 75.7267 87.1035 75.3036 88.8257 74.5656L87.8409 72.2677ZM69.1161 43.1338L71.8661 45.8838L73.6339 44.1161L70.8839 41.3661L69.1161 43.1338ZM75.1837 37.8721L76.1003 43.3721L78.5663 42.9611L77.6496 37.4611L75.1837 37.8721ZM82.7099 40.6399L80.8766 43.3899L82.9567 44.7767L84.79 42.0267L82.7099 40.6399Z" fill="white"></path> </g> <defs> <filter id="filter0_i_114_37" x="0" y="28" width="400" height="96" filterUnits="userSpaceOnUse" color-interpolation-filters="sRGB"> <feFlood flood-opacity="0" result="BackgroundImageFix"></feFlood> <feBlend mode="normal" in="SourceGraphic" in2="BackgroundImageFix" result="shape"></feBlend> <feColorMatrix in="SourceAlpha" type="matrix" values="0 0 0 0 0 0 0 0 0 0 0 0 0 0 0 0 0 0 127 0" result="hardAlpha"></feColorMatrix> <feOffset></feOffset> <feGaussianBlur stdDeviation="8"></feGaussianBlur> <feComposite in2="hardAlpha" operator="arithmetic" k2="-1" k3="1"></feComposite> <feColorMatrix type="matrix" values="0 0 0 0 0.25098 0 0 0 0 0.709804 0 0 0 0 0.984314 0 0 0 1 0"></feColorMatrix> <feBlend mode="normal" in2="shape" result="effect1_innerShadow_114_37"></feBlend> </filter> <filter id="filter1_i_114_37" x="0" y="0" width="400" height="120" filterUnits="userSpaceOnUse" color-interpolation-filters="sRGB"> <feFlood flood-opacity="0" result="BackgroundImageFix"></feFlood> <feBlend mode="normal" in="SourceGraphic" in2="BackgroundImageFix" result="shape"></feBlend> <feColorMatrix in="SourceAlpha" type="matrix" values="0 0 0 0 0 0 0 0 0 0 0 0 0 0 0 0 0 0 127 0" result="hardAlpha"></feColorMatrix> <feOffset></feOffset> <feGaussianBlur stdDeviation="12"></feGaussianBlur> <feComposite in2="hardAlpha" operator="arithmetic" k2="-1" k3="1"></feComposite> <feColorMatrix type="matrix" values="0 0 0 0 0.45 0 0 0 0 0.794118 0 0 0 0 1 0 0 0 1 0"></feColorMatrix> <feBlend mode="normal" in2="shape" result="effect1_innerShadow_114_37"></feBlend> </filter> <linearGradient id="paint0_linear_114_37" x1="400" y1="124" x2="17.7534" y2="-19.3425" gradientUnits="userSpaceOnUse"> <stop stop-color="#0E4791"></stop> <stop offset="1" stop-color="#176496"></stop> </linearGradient> <linearGradient id="paint1_linear_114_37" x1="400" y1="120" x2="1.43051e-06" y2="-4.76837e-06" gradientUnits="userSpaceOnUse"> <stop stop-color="#1979F2"></stop> <stop offset="1" stop-color="#40B5FB"></stop> </linearGradient> </defs> </svg> 