<?xml version="1.0" encoding="UTF-8"?> <svg xmlns="http://www.w3.org/2000/svg" width="20" height="20" viewBox="0 0 20 20" fill="none"> <path fill-rule="evenodd" clip-rule="evenodd" d="M13.2129 8.03339L12.6238 7.82442L12.3944 7.24304C12.6223 7.15311 12.8818 7.20464 13.058 7.37483C13.2342 7.54502 13.2948 7.80249 13.2129 8.03339ZM7.8481 12.7699C6.93762 11.8907 6.91229 10.4399 7.7915 9.52946C7.92433 9.39191 8.10371 9.26453 8.27818 9.15385C8.46127 9.0377 8.67613 8.91696 8.90498 8.79674C9.36311 8.55608 9.90491 8.30311 10.4181 8.07472C10.9329 7.84564 11.4264 7.63796 11.7907 7.48775C11.973 7.41257 12.1234 7.3516 12.2285 7.30935C12.281 7.28821 12.3222 7.27175 12.3504 7.26051L12.3828 7.24765L12.3944 7.24304C12.3945 7.24302 12.3944 7.24304 12.6238 7.82442C13.2129 8.03339 13.2129 8.03334 13.2129 8.03339L13.2087 8.04519L13.1969 8.07799C13.1867 8.10658 13.1717 8.14834 13.1524 8.20157C13.1138 8.30802 13.0581 8.46045 12.9894 8.64529C12.852 9.01462 12.6616 9.51507 12.4507 10.0375C12.2403 10.5584 12.0064 11.1087 11.7819 11.5749C11.6697 11.8078 11.5566 12.0268 11.4469 12.2138C11.3424 12.392 11.2213 12.5757 11.0885 12.7133C10.2093 13.6237 8.75853 13.6491 7.8481 12.7699ZM11.5364 8.9505C11.3414 9.03404 11.1355 9.12365 10.9264 9.21673C10.4238 9.44038 9.90988 9.68083 9.4863 9.90334C9.2743 10.0147 9.09181 10.118 8.94779 10.2094C8.79516 10.3062 8.71768 10.3698 8.69067 10.3978C8.29104 10.8116 8.30254 11.4711 8.7164 11.8707C9.13022 12.2703 9.78968 12.2588 10.1893 11.845C10.2163 11.817 10.2772 11.7373 10.3687 11.5814C10.4549 11.4343 10.5518 11.2483 10.6557 11.0326C10.8633 10.6015 11.0856 10.0795 11.2916 9.56945C11.3773 9.35715 11.4597 9.14823 11.5364 8.9505Z" fill="#6A6A6A"></path> <path fill-rule="evenodd" clip-rule="evenodd" d="M0.625 10C0.625 4.82232 4.82232 0.625 10 0.625C15.1777 0.625 19.375 4.82232 19.375 10C19.375 12.5887 18.325 14.9333 16.6291 16.6291C16.385 16.8732 15.9893 16.8732 15.7452 16.6291C15.5011 16.385 15.5012 15.9893 15.7452 15.7452C17.2163 14.2742 18.125 12.2438 18.125 10C18.125 5.51268 14.4873 1.875 10 1.875C5.51268 1.875 1.875 5.51268 1.875 10C1.875 12.2438 2.78374 14.2742 4.25476 15.7452C4.49883 15.9893 4.49884 16.385 4.25476 16.6291C4.01069 16.8732 3.61496 16.8732 3.37088 16.6291C1.67502 14.9333 0.625 12.5887 0.625 10Z" fill="#6A6A6A"></path> <path fill-rule="evenodd" clip-rule="evenodd" d="M10 1.04169C10.3452 1.04169 10.625 1.32151 10.625 1.66669V3.33335C10.625 3.67853 10.3452 3.95835 10 3.95835C9.65482 3.95835 9.375 3.67853 9.375 3.33335V1.66669C9.375 1.32151 9.65482 1.04169 10 1.04169Z" fill="#6A6A6A"></path> <path fill-rule="evenodd" clip-rule="evenodd" d="M16.6713 4.24922C16.8885 4.51748 16.8472 4.91104 16.5789 5.12826L15.2837 6.17709C15.0154 6.39432 14.6218 6.35295 14.4046 6.08469C14.1874 5.81643 14.2288 5.42287 14.497 5.20565L15.7923 4.15681C16.0605 3.93959 16.4541 3.98096 16.6713 4.24922Z" fill="#6A6A6A"></path> <path fill-rule="evenodd" clip-rule="evenodd" d="M15.4848 10.8315C15.5625 10.4951 15.8981 10.2854 16.2344 10.3631L17.8583 10.738C18.1946 10.8156 18.4043 11.1512 18.3267 11.4876C18.249 11.8239 17.9134 12.0336 17.5771 11.956L15.9532 11.581C15.6169 11.5034 15.4072 11.1678 15.4848 10.8315Z" fill="#6A6A6A"></path> <path fill-rule="evenodd" clip-rule="evenodd" d="M4.51521 10.8315C4.59285 11.1678 4.38315 11.5034 4.04682 11.581L2.42287 11.956C2.08654 12.0336 1.75094 11.8239 1.67329 11.4876C1.59564 11.1512 1.80535 10.8156 2.14168 10.738L3.76563 10.3631C4.10196 10.2854 4.43756 10.4951 4.51521 10.8315Z" fill="#6A6A6A"></path> <path fill-rule="evenodd" clip-rule="evenodd" d="M3.32872 4.24922C3.54595 3.98096 3.93951 3.93959 4.20776 4.15682L5.503 5.20565C5.77126 5.42287 5.81263 5.81643 5.5954 6.08469C5.37818 6.35295 4.98462 6.39432 4.71636 6.17709L3.42112 5.12826C3.15287 4.91104 3.1115 4.51748 3.32872 4.24922Z" fill="#6A6A6A"></path> </svg> 