<?xml version="1.0" standalone="no"?>
<!DOCTYPE svg PUBLIC "-//W3C//DTD SVG 20010904//EN"
 "http://www.w3.org/TR/2001/REC-SVG-20010904/DTD/svg10.dtd">
<svg version="1.0" xmlns="http://www.w3.org/2000/svg"
 width="320.000000pt" height="80.000000pt" viewBox="0 0 320.000000 80.000000"
 preserveAspectRatio="xMidYMid meet">
<metadata>
Created by potrace 1.16, written by Peter Selinger 2001-2019
</metadata>
<g transform="translate(0.000000,80.000000) scale(0.100000,-0.100000)"
fill="#000000" stroke="none">
<path d="M753 745 c-7 -8 -13 -20 -13 -27 0 -8 -9 -20 -20 -28 -11 -8 -20 -21
-20 -30 0 -9 -9 -22 -20 -30 -11 -8 -20 -26 -20 -40 0 -14 -9 -32 -20 -40 -11
-8 -20 -18 -20 -22 0 -4 41 -8 90 -8 50 0 90 -3 90 -6 0 -3 -13 -19 -30 -34
-18 -17 -30 -38 -30 -54 0 -24 4 -26 39 -26 22 0 41 -5 44 -12 2 -7 8 -9 13
-5 5 4 2 12 -6 17 -8 5 -11 12 -8 16 12 11 38 -23 38 -50 0 -22 -4 -26 -30
-26 -16 0 -30 -4 -30 -10 0 -15 -29 -12 -46 4 -8 8 -14 22 -14 30 0 20 -7 20
-26 2 -8 -8 -14 -26 -14 -40 0 -14 -4 -26 -10 -26 -5 0 -10 -9 -10 -20 0 -13
7 -20 20 -20 11 0 20 5 20 10 0 14 37 12 43 -2 4 -10 8 -9 16 2 8 12 13 11 29
-8 24 -27 32 -28 32 -2 0 11 5 20 10 20 6 0 10 14 10 30 0 17 5 30 10 30 6 0
10 14 10 30 0 17 5 30 10 30 6 0 10 9 10 20 0 11 5 20 10 20 6 0 10 18 10 40
0 22 5 40 10 40 6 0 10 9 10 20 0 11 5 20 10 20 6 0 10 14 10 30 0 17 5 30 10
30 6 0 10 13 10 29 0 16 6 31 12 33 9 3 8 9 -4 21 -11 11 -33 17 -62 17 -39 0
-46 3 -46 20 0 18 -7 20 -57 20 -37 -1 -63 -6 -70 -15z"/>
<path d="M233 725 c-7 -8 -13 -26 -13 -40 0 -14 -4 -25 -10 -25 -5 0 -10 -13
-10 -30 0 -16 -4 -30 -10 -30 -5 0 -10 -9 -10 -20 0 -11 -4 -20 -10 -20 -5 0
-10 -13 -10 -30 0 -16 -4 -30 -10 -30 -5 0 -10 -13 -10 -30 0 -16 -4 -30 -10
-30 -5 0 -10 -13 -10 -30 0 -16 -4 -30 -10 -30 -5 0 -10 -13 -10 -30 0 -16 -4
-30 -10 -30 -5 0 -10 -18 -10 -40 0 -22 5 -40 10 -40 6 0 10 9 10 20 0 11 5
20 10 20 6 0 10 -18 10 -40 0 -38 -2 -40 -30 -40 -22 0 -30 -5 -30 -18 0 -10
-9 -24 -20 -32 -14 -10 -20 -26 -20 -52 l0 -38 76 0 c83 0 104 11 104 54 0 14
5 26 10 26 6 0 10 30 10 70 0 63 2 70 20 70 16 0 20 7 20 30 0 17 5 30 10 30
6 0 10 27 10 60 0 33 4 60 10 60 6 0 10 5 10 10 0 6 -30 10 -70 10 -40 0 -70
4 -70 10 0 6 27 10 60 10 33 0 60 4 60 10 0 6 9 10 20 10 13 0 20 -7 20 -20 0
-11 5 -20 10 -20 6 0 10 9 10 20 0 11 5 20 10 20 6 0 10 -9 10 -20 0 -17 7
-20 50 -20 l50 0 0 60 c0 33 4 60 10 60 15 0 12 70 -4 86 -8 8 -26 14 -39 14
-14 0 -27 6 -30 13 -2 7 -16 0 -35 -21 -28 -30 -33 -32 -47 -19 -8 9 -15 23
-15 31 0 9 -8 16 -20 16 -11 0 -20 5 -20 10 0 14 -13 12 -27 -5z"/>
<path d="M1173 605 c-7 -8 -13 -19 -13 -26 0 -6 -13 -24 -30 -39 -17 -16 -30
-38 -30 -52 0 -13 -9 -30 -20 -38 -12 -8 -20 -26 -20 -42 0 -15 -4 -28 -10
-28 -5 0 -10 5 -10 10 0 6 -4 10 -10 10 -5 0 -10 -13 -10 -30 0 -16 -4 -30
-10 -30 -5 0 -10 -9 -10 -20 0 -13 -7 -20 -20 -20 -13 0 -20 -7 -20 -20 0 -11
5 -20 10 -20 6 0 10 -4 10 -10 0 -5 -13 -10 -30 -10 -22 0 -30 -5 -30 -18 0
-10 -9 -24 -20 -32 -11 -8 -20 -21 -20 -30 0 -9 -9 -22 -20 -30 -11 -8 -20
-22 -20 -32 0 -10 -4 -18 -10 -18 -5 0 -10 -4 -10 -10 0 -6 37 -10 90 -10 53
0 90 4 90 10 0 6 9 10 20 10 11 0 20 5 20 10 0 6 9 10 20 10 11 0 20 5 20 10
0 6 11 10 25 10 29 0 75 40 75 65 0 8 7 15 16 15 30 0 44 -27 44 -84 0 -53 1
-56 26 -56 29 0 54 21 54 44 0 9 8 16 20 16 11 0 20 5 20 10 0 6 -18 10 -40
10 -30 0 -40 4 -40 16 0 28 27 44 74 44 25 0 46 5 46 10 0 6 9 10 20 10 13 0
20 7 20 20 0 11 -4 20 -10 20 -5 0 -10 -4 -10 -10 0 -5 -4 -10 -10 -10 -6 0
-10 50 -10 130 l0 130 -50 0 c-27 0 -50 -4 -50 -10 0 -5 -9 -10 -20 -10 -18 0
-20 -7 -20 -86 0 -88 -10 -114 -44 -114 -9 0 -16 -4 -16 -10 0 -5 -18 -10 -40
-10 -22 0 -40 -4 -40 -10 0 -5 -4 -10 -10 -10 -5 0 -10 9 -10 20 0 11 5 20 10
20 6 0 10 8 10 18 0 10 9 24 20 32 11 8 20 22 20 32 0 10 5 18 10 18 6 0 10 9
10 20 0 11 -4 20 -10 20 -5 0 -10 5 -10 10 0 6 14 10 30 10 17 0 30 5 30 10 0
6 -18 10 -40 10 -43 0 -47 4 -26 26 9 9 35 14 70 14 31 0 56 5 56 10 0 6 18
10 40 10 22 0 40 5 40 10 0 6 9 10 20 10 17 0 20 7 20 40 l0 40 -69 0 c-46 0
-71 -4 -75 -12 -5 -10 -7 -10 -12 0 -8 16 -56 15 -71 -3z"/>
<path d="M1711 604 c-7 -8 -10 -18 -6 -22 4 -4 10 -1 12 6 10 26 23 10 23 -28
0 -33 -3 -40 -20 -40 -11 0 -20 -4 -20 -10 0 -15 -30 -12 -47 5 -14 14 -13 18
6 34 25 22 27 31 6 31 -19 0 -65 -44 -65 -62 0 -8 -9 -20 -20 -28 -11 -8 -20
-22 -20 -32 0 -10 -4 -18 -10 -18 -5 0 -10 -9 -10 -20 0 -12 7 -20 16 -20 8 0
22 -6 30 -14 16 -17 19 -46 4 -46 -5 0 -10 -9 -10 -20 0 -13 -7 -20 -20 -20
-11 0 -20 5 -20 10 0 6 -9 10 -20 10 -16 0 -20 -7 -20 -30 0 -23 4 -30 20 -30
11 0 20 -4 20 -10 0 -5 -7 -10 -16 -10 -8 0 -23 -7 -31 -16 -14 -13 -14 -17
-2 -26 11 -7 11 -11 2 -15 -18 -7 -16 -71 1 -89 8 -8 22 -14 30 -14 9 0 16 -4
16 -10 0 -6 27 -10 60 -10 33 0 60 4 60 10 0 6 9 10 19 10 11 0 22 6 25 13 5
9 7 9 12 0 7 -15 44 -17 44 -3 0 6 -4 10 -10 10 -5 0 -10 9 -10 20 0 16 7 20
30 20 21 0 30 -5 30 -16 0 -8 6 -22 14 -30 17 -16 46 -19 46 -4 0 6 -4 10 -10
10 -5 0 -10 18 -10 40 0 44 18 53 47 24 13 -13 14 -17 3 -24 -11 -7 -10 -11 3
-25 15 -15 19 -15 32 -1 17 16 21 66 5 66 -5 0 -10 5 -10 10 0 6 9 10 20 10
11 0 20 -4 20 -10 0 -5 5 -10 10 -10 6 0 10 9 10 20 0 11 5 20 10 20 6 0 10 9
10 20 0 11 5 20 10 20 6 0 10 9 10 19 0 11 6 22 13 24 9 4 8 8 -3 16 -13 10
-13 12 0 20 8 6 11 13 7 18 -5 4 -13 1 -18 -7 -8 -11 -12 -12 -16 -2 -6 14
-43 16 -43 2 0 -5 -9 -10 -20 -10 -11 0 -20 5 -20 10 0 6 -13 10 -30 10 -28 0
-30 -2 -30 -40 0 -39 12 -53 24 -27 5 9 7 9 12 0 3 -7 14 -13 25 -13 10 0 19
-4 19 -10 0 -14 -38 -12 -42 2 -5 15 -38 -13 -38 -32 0 -20 -49 -60 -75 -60
-14 0 -25 -4 -25 -10 0 -5 -13 -10 -30 -10 -16 0 -30 5 -30 10 0 6 -18 10 -40
10 -33 0 -40 3 -40 20 0 11 -4 20 -10 20 -18 0 -10 32 12 52 19 16 20 21 8 28
-12 7 -11 12 8 28 25 22 29 52 6 52 -22 0 -53 32 -36 38 6 2 12 12 12 23 0 23
26 25 47 3 14 -13 14 -17 2 -24 -7 -5 -10 -12 -7 -16 8 -8 38 20 38 36 0 16
47 60 64 60 8 0 17 6 19 13 4 9 8 8 16 -3 5 -8 13 -11 18 -7 4 5 1 12 -6 17
-12 7 -12 11 2 24 20 20 27 20 27 0 0 -23 25 -44 54 -44 19 0 26 -5 26 -20 0
-17 7 -20 40 -20 38 0 40 2 40 30 0 17 3 30 6 30 11 0 34 -29 34 -44 0 -9 8
-16 20 -16 16 0 20 7 20 35 0 29 -9 44 -45 80 -24 25 -47 45 -50 45 -11 0 -4
-39 7 -42 9 -3 8 -9 -4 -21 -22 -22 -28 -21 -28 3 0 17 -7 20 -40 20 -33 0
-40 -3 -40 -20 0 -11 -4 -20 -10 -20 -5 0 -10 14 -10 30 0 17 5 30 10 30 6 0
10 5 10 10 0 17 -153 12 -169 -6z"/>
<path d="M2220 600 c0 -11 -4 -20 -10 -20 -5 0 -10 -16 -10 -36 0 -27 -7 -43
-30 -64 -18 -17 -30 -38 -30 -54 0 -14 -4 -26 -10 -26 -5 0 -10 -18 -10 -40 0
-22 -4 -40 -10 -40 -5 0 -10 -9 -10 -20 0 -11 -4 -20 -10 -20 -5 0 -10 -9 -10
-20 0 -11 5 -20 10 -20 6 0 10 -13 10 -30 0 -21 -5 -30 -16 -30 -8 0 -22 -7
-30 -15 -13 -13 -12 -18 10 -40 14 -14 32 -25 41 -25 8 0 15 -4 15 -10 0 -5
-13 -10 -30 -10 -16 0 -30 -4 -30 -10 0 -17 90 -12 107 6 14 13 14 17 2 26
-11 7 -11 11 -1 15 6 2 12 9 12 14 0 14 -38 11 -43 -3 -2 -7 -8 -10 -12 -6 -9
8 18 38 35 38 22 0 40 29 40 62 0 22 7 39 20 48 17 12 20 26 20 92 0 45 4 78
10 78 6 0 10 -8 10 -18 0 -10 9 -24 20 -32 21 -15 28 -50 10 -50 -5 0 -10 -9
-10 -20 0 -11 5 -20 10 -20 6 0 10 5 10 10 0 6 14 10 30 10 17 0 30 -4 30 -10
0 -5 -9 -10 -20 -10 -11 0 -20 -4 -20 -10 0 -5 -9 -10 -20 -10 -22 0 -27 -15
-7 -24 10 -5 10 -7 0 -12 -20 -9 -15 -24 7 -24 11 0 20 -4 20 -10 0 -5 -9 -10
-20 -10 -16 0 -20 -7 -20 -36 0 -38 18 -64 44 -64 9 0 16 -4 16 -10 0 -5 9
-10 20 -10 11 0 20 -4 20 -10 0 -6 30 -10 70 -10 l70 0 0 36 c0 25 -7 43 -22
56 -18 15 -20 21 -9 28 12 7 12 11 -2 24 -17 18 -47 21 -47 6 0 -5 -9 -10 -20
-10 -11 0 -20 5 -20 10 0 6 5 10 10 10 15 0 12 58 -2 63 -9 3 -6 11 10 24 12
12 22 32 22 47 0 22 -4 26 -30 26 -16 0 -30 -4 -30 -10 0 -5 -9 -10 -20 -10
-13 0 -20 7 -20 20 0 12 7 20 16 20 8 0 23 7 31 16 14 13 14 17 2 26 -11 7
-11 11 -1 15 7 3 12 24 12 54 0 27 5 49 10 49 6 0 10 9 10 20 0 22 -15 27 -23
8 -4 -10 -8 -9 -16 2 -10 13 -12 13 -22 0 -8 -11 -12 -12 -16 -2 -8 20 -43 14
-43 -8 0 -16 -7 -20 -30 -20 -23 0 -30 4 -30 20 0 13 7 20 20 20 11 0 20 5 20
10 0 6 -13 10 -30 10 -23 0 -30 -4 -30 -20z"/>
<path d="M2600 610 c0 -5 -7 -10 -16 -10 -20 0 -44 -24 -44 -44 0 -9 -4 -16
-10 -16 -5 0 -10 -18 -10 -40 0 -22 -4 -40 -10 -40 -5 0 -10 -13 -10 -30 0
-16 -4 -30 -10 -30 -5 0 -10 -9 -10 -20 0 -11 -4 -20 -10 -20 -5 0 -10 -9 -10
-20 0 -13 7 -20 20 -20 11 0 20 -4 20 -8 0 -4 -9 -14 -20 -22 -11 -8 -20 -22
-20 -32 0 -15 9 -18 46 -18 50 0 89 24 63 40 -11 7 -9 13 9 28 12 11 22 27 22
36 0 9 5 16 10 16 6 0 10 5 10 10 0 6 -13 10 -30 10 -16 0 -30 5 -30 10 0 6 9
10 20 10 11 0 20 5 20 10 0 6 9 10 20 10 13 0 20 7 20 20 0 11 5 20 10 20 6 0
10 18 10 40 0 22 5 40 10 40 6 0 10 9 10 20 0 11 5 20 10 20 6 0 10 9 10 20 0
15 -7 20 -29 20 -16 0 -32 -6 -35 -12 -5 -10 -7 -10 -12 0 -7 14 -24 16 -24 2z"/>
<path d="M3020 560 c0 -22 5 -40 10 -40 6 0 10 -9 10 -19 0 -11 6 -22 13 -25
10 -5 10 -7 0 -12 -8 -3 -13 -25 -13 -55 0 -42 3 -49 20 -49 18 0 20 -7 20
-60 0 -33 -4 -60 -10 -60 -5 0 -10 5 -10 10 0 6 -4 10 -10 10 -5 0 -10 -13
-10 -30 0 -27 -3 -30 -30 -30 -16 0 -30 5 -30 10 0 6 -13 10 -30 10 -16 0 -30
5 -30 10 0 6 -9 10 -20 10 -32 0 -26 46 10 80 18 17 30 38 30 54 0 14 5 26 10
26 6 0 10 9 10 20 0 13 7 20 20 20 12 0 20 7 20 16 0 48 -93 62 -135 19 -38
-37 -33 -55 15 -55 33 0 40 -3 40 -20 0 -18 -7 -20 -60 -20 -53 0 -60 -2 -60
-20 0 -11 -4 -20 -10 -20 -5 0 -10 -13 -10 -30 l0 -30 -90 0 -90 0 0 -30 c0
-23 4 -30 20 -30 11 0 20 -4 20 -10 0 -6 47 -10 120 -10 73 0 120 4 120 10 0
6 5 10 10 10 14 0 12 -37 -2 -44 -10 -5 -10 -7 0 -12 6 -3 12 -12 12 -21 0
-19 24 -43 44 -43 9 0 16 -4 16 -10 0 -6 39 -10 96 -10 74 0 99 4 111 16 14
13 14 17 2 26 -11 7 -11 11 -1 15 8 3 12 30 12 83 0 53 -4 80 -12 84 -10 5
-10 7 0 12 22 10 12 24 -18 24 -16 0 -30 -4 -30 -10 0 -5 -4 -10 -10 -10 -5 0
-10 9 -10 20 0 11 -4 20 -10 20 -15 0 -12 70 4 86 17 16 46 19 46 4 0 -5 9
-10 20 -10 18 0 20 7 20 80 l0 80 -80 0 -80 0 0 -40z"/>
<path d="M573 465 c-7 -8 -13 -21 -13 -30 0 -8 -4 -15 -10 -15 -5 0 -10 -8
-10 -18 0 -10 -9 -24 -20 -32 -11 -8 -20 -22 -20 -32 0 -11 -7 -18 -20 -18
-11 0 -20 5 -20 10 0 6 -5 10 -11 10 -5 0 -7 -4 -4 -10 4 -6 -12 -10 -39 -10
-25 0 -46 5 -46 10 0 6 -4 10 -10 10 -5 0 -10 -18 -10 -40 0 -22 -4 -40 -10
-40 -5 0 -10 -9 -10 -20 0 -11 5 -20 10 -20 6 0 10 -9 10 -20 0 -11 -4 -20
-10 -20 -15 0 -12 -77 3 -84 9 -5 10 -7 0 -12 -31 -14 -8 -24 57 -24 63 0 70
2 70 20 0 11 5 20 10 20 6 0 10 27 10 60 l0 60 40 0 c22 0 40 5 40 10 0 6 7
10 16 10 19 0 44 24 44 42 0 8 9 20 20 28 11 8 20 21 20 30 0 9 9 22 20 30 11
8 20 22 20 32 0 10 5 18 10 18 6 0 10 9 10 20 0 13 -7 20 -20 20 -11 0 -20 -4
-20 -10 0 -5 -18 -10 -40 -10 -33 0 -40 3 -40 20 0 23 -10 25 -27 5z"/>
<path d="M700 220 c0 -12 -7 -20 -16 -20 -20 0 -44 -24 -44 -44 0 -9 -4 -16
-10 -16 -5 0 -10 -13 -10 -30 0 -16 -4 -30 -10 -30 -5 0 -10 -4 -10 -10 0 -6
37 -10 90 -10 l90 0 0 30 c0 17 5 30 10 30 6 0 10 9 10 20 0 11 -4 20 -10 20
-5 0 -10 18 -10 40 l0 40 -40 0 c-33 0 -40 -3 -40 -20z"/>
<path d="M2660 162 c0 -10 -9 -24 -20 -32 -11 -8 -20 -22 -20 -32 0 -10 -4
-18 -10 -18 -5 0 -10 -4 -10 -10 0 -6 32 -10 76 -10 78 0 104 11 104 44 0 9 5
16 10 16 6 0 10 9 10 20 0 17 -7 20 -40 20 -22 0 -40 5 -40 10 0 6 -13 10 -30
10 -22 0 -30 -5 -30 -18z"/>
</g>
</svg>
